:FULLY-SPECIFIED
:FORCE-ALL-JOINTS-BE-3DOF
:DEGREES
3160
root 0.971991 16.9371 -33.3622 1086.07 5.2959 -3.78136
lfemur -18.5449 -2.55219 -8.25323
ltibia 35.0293 0 0
lfoot -16.3537 7.6204 0
ltoes -38.7263 0 0
rfemur -19.2944 -0.116263 18.4796
rtibia 38.7755 0 0
rfoot -12.024 -21.1583 0
rtoes -16.4001 0 0
lowerback 5.66722 1.50793 -0.510071
upperback -4.12021 2.11394 1.92066
thorax -7.5958 1.12458 2.04524
lowerneck -5.27468 -5.10253 -7.89871
upperneck 9.3061 -6.74595 5.99563
head 4.10289 -3.31902 2.73022
lclavicle -2.5388e-14 -3.42929e-15 0
lhumerus -33.6691 -18.2031 94.8496
lradius 51.7727 0 0
lwrist -9.31885 0 0
lhand -34.1425 389.821 0
lfingers 7.12502 0 0
lthumb -7.31714 -660.325 0
rclavicle -2.5388e-14 -3.42929e-15 0
rhumerus -35.6134 13.8404 -81.1228
rradius 49.9132 0 0
rwrist 1.49829 0 0
rhand -29.4958 -394.05 0
rfingers 7.12502 0 0
rthumb -2.83046 295.988 0
3161
root 0.979662 16.9405 -33.3581 1086.07 5.21867 -3.80836
lfemur -18.4718 -2.55368 -8.26084
ltibia 34.9757 0 0
lfoot -16.3365 7.69105 0
ltoes -38.7409 0 0
rfemur -19.2381 -0.080007 18.4783
rtibia 38.6704 0 0
rfoot -11.9928 -21.1176 0
rtoes -16.3866 0 0
lowerback 5.64206 1.52042 -0.517411
upperback -4.13894 2.13004 1.91786
thorax -7.60214 1.13298 2.04483
lowerneck -5.3111 -5.08968 -7.88797
upperneck 9.40208 -6.72898 5.98231
head 4.13561 -3.31051 2.72297
lclavicle -2.37764e-14 -3.16578e-15 0
lhumerus -33.6304 -17.9735 94.764
lradius 51.2852 0 0
lwrist -9.4881 0 0
lhand -34.1502 389.819 0
lfingers 7.12502 0 0
lthumb -7.32458 -660.327 0
rclavicle -2.37764e-14 -3.16578e-15 0
rhumerus -35.6074 13.5564 -81.089
rradius 49.3472 0 0
rwrist 1.61926 0 0
rhand -29.4366 -393.988 0
rfingers 7.12502 0 0
rthumb -2.77331 296.049 0
3162
root 0.986941 16.9436 -33.354 1086.07 5.1404 -3.83402
lfemur -18.4 -2.55314 -8.26858
ltibia 34.9241 0 0
lfoot -16.32 7.76069 0
ltoes -38.7594 0 0
rfemur -19.185 -0.0450996 18.4769
rtibia 38.5701 0 0
rfoot -11.9638 -21.0762 0
rtoes -16.3728 0 0
lowerback 5.61829 1.53313 -0.524546
upperback -4.15727 2.14643 1.91486
thorax -7.60885 1.1415 2.04404
lowerneck -5.34589 -5.07628 -7.87723
upperneck 9.49573 -6.71128 5.96848
head 4.16745 -3.30169 2.71595
lclavicle -2.20628e-14 -2.89345e-15 0
lhumerus -33.585 -17.7481 94.68
lradius 50.7939 0 0
lwrist -9.65816 0 0
lhand -34.1555 389.821 0
lfingers 7.12502 0 0
lthumb -7.32963 -660.324 0
rclavicle -2.20628e-14 -2.89345e-15 0
rhumerus -35.5998 13.2771 -81.0572
rradius 48.7945 0 0
rwrist 1.73128 0 0
rhand -29.3724 -393.919 0
rfingers 7.12502 0 0
rthumb -2.71129 296.117 0
3163
root 0.993847 16.9466 -33.3499 1086.07 5.06122 -3.85838
lfemur -18.3293 -2.5507 -8.27645
ltibia 34.8742 0 0
lfoot -16.3041 7.82935 0
ltoes -38.7814 0 0
rfemur -19.1351 -0.0115111 18.4756
rtibia 38.4746 0 0
rfoot -11.937 -21.0344 0
rtoes -16.3586 0 0
lowerback 5.59585 1.54601 -0.531483
upperback -4.17519 2.16308 1.91168
thorax -7.61591 1.15014 2.04291
lowerneck -5.37914 -5.06239 -7.86651
upperneck 9.58709 -6.69293 5.95419
head 4.19845 -3.29258 2.70917
lclavicle -2.02585e-14 -2.61438e-15 0
lhumerus -33.5334 -17.5267 94.5975
lradius 50.2995 0 0
lwrist -9.82894 0 0
lhand -34.1584 389.828 0
lfingers 7.12502 0 0
lthumb -7.33245 -660.318 0
rclavicle -2.02585e-14 -2.61438e-15 0
rhumerus -35.5909 13.0025 -81.0273
rradius 48.2549 0 0
rwrist 1.83477 0 0
rhand -29.3033 -393.845 0
rfingers 7.12502 0 0
rthumb -2.64453 296.189 0
3164
root 1.0004 16.9495 -33.3458 1086.07 4.98127 -3.88152
lfemur -18.2599 -2.54648 -8.28444
ltibia 34.8262 0 0
lfoot -16.289 7.89702 0
ltoes -38.8067 0 0
rfemur -19.0883 0.0207886 18.4743
rtibia 38.3836 0 0
rfoot -11.9121 -20.9922 0
rtoes -16.3443 0 0
lowerback 5.57471 1.55903 -0.538228
upperback -4.19272 2.17993 1.90834
thorax -7.62328 1.15885 2.04145
lowerneck -5.41089 -5.04807 -7.85581
upperneck 9.67623 -6.674 5.93952
head 4.22862 -3.28323 2.70262
lclavicle -1.83747e-14 -2.33066e-15 0
lhumerus -33.4762 -17.3092 94.5163
lradius 49.8026 0 0
lwrist -10.0003 0 0
lhand -34.1591 389.838 0
lfingers 7.12502 0 0
lthumb -7.33319 -660.308 0
rclavicle -1.83747e-14 -2.33066e-15 0
rhumerus -35.5808 12.7327 -80.9992
rradius 47.7281 0 0
rwrist 1.93014 0 0
rhand -29.2294 -393.767 0
rfingers 7.12502 0 0
rthumb -2.57318 296.267 0
3165
root 1.00661 16.9522 -33.3418 1086.07 4.9007 -3.90349
lfemur -18.1916 -2.54061 -8.29253
ltibia 34.7799 0 0
lfoot -16.2745 7.96374 0
ltoes -38.8349 0 0
rfemur -19.0442 0.0518295 18.4729
rtibia 38.297 0 0
rfoot -11.8892 -20.9496 0
rtoes -16.3299 0 0
lowerback 5.5548 1.57217 -0.544788
upperback -4.20986 2.19695 1.90486
thorax -7.63096 1.16764 2.03971
lowerneck -5.44123 -5.03337 -7.84513
upperneck 9.76319 -6.65458 5.92454
head 4.25799 -3.27366 2.6963
lclavicle -1.64226e-14 -2.04437e-15 0
lhumerus -33.4137 -17.0953 94.4366
lradius 49.3037 0 0
lwrist -10.1722 0 0
lhand -34.1579 389.851 0
lfingers 7.12502 0 0
lthumb -7.33201 -660.295 0
rclavicle -1.64226e-14 -2.04437e-15 0
rhumerus -35.5696 12.4676 -80.9728
rradius 47.2141 0 0
rwrist 2.01783 0 0
rhand -29.1509 -393.683 0
rfingers 7.12502 0 0
rthumb -2.49737 296.349 0
3166
root 1.0125 16.9547 -33.3377 1086.07 4.81964 -3.92434
lfemur -18.1245 -2.53322 -8.30072
ltibia 34.7354 0 0
lfoot -16.2606 8.02951 0
ltoes -38.8659 0 0
rfemur -19.0028 0.0816419 18.4716
rtibia 38.2146 0 0
rfoot -11.868 -20.9068 0
rtoes -16.3155 0 0
lowerback 5.53609 1.58539 -0.55117
upperback -4.2266 2.2141 1.90126
thorax -7.6389 1.17647 2.0377
lowerneck -5.47022 -5.01835 -7.83449
upperneck 9.84802 -6.63475 5.90931
head 4.28658 -3.26391 2.6902
lclavicle -1.44133e-14 -1.75761e-15 0
lhumerus -33.3464 -16.885 94.358
lradius 48.8035 0 0
lwrist -10.3446 0 0
lhand -34.1548 389.867 0
lfingers 7.12502 0 0
lthumb -7.32905 -660.279 0
rclavicle -1.44133e-14 -1.75761e-15 0
rhumerus -35.5574 12.2073 -80.948
rradius 46.7126 0 0
rwrist 2.09823 0 0
rhand -29.068 -393.596 0
rfingers 7.12502 0 0
rthumb -2.41724 296.434 0
3167
root 1.01808 16.9572 -33.3336 1086.08 4.73824 -3.94413
lfemur -18.0585 -2.52445 -8.30899
ltibia 34.6926 0 0
lfoot -16.2474 8.09436 0
ltoes -38.8993 0 0
rfemur -18.9639 0.110256 18.4703
rtibia 38.1363 0 0
rfoot -11.8486 -20.8637 0
rtoes -16.3011 0 0
lowerback 5.51852 1.59867 -0.55738
upperback -4.24296 2.23133 1.89754
thorax -7.64709 1.18534 2.03545
lowerneck -5.49792 -5.00306 -7.82388
upperneck 9.9308 -6.61458 5.89391
head 4.31443 -3.25402 2.68432
lclavicle -1.2358e-14 -1.47245e-15 0
lhumerus -33.2748 -16.678 94.2806
lradius 48.3025 0 0
lwrist -10.5172 0 0
lhand -34.1501 389.886 0
lfingers 7.12502 0 0
lthumb -7.32448 -660.26 0
rclavicle -1.2358e-14 -1.47245e-15 0
rhumerus -35.5443 11.952 -80.9248
rradius 46.2234 0 0
rwrist 2.17177 0 0
rhand -28.9807 -393.506 0
rfingers 7.12502 0 0
rthumb -2.33294 296.523 0
3168
root 1.02338 16.9595 -33.3296 1086.08 4.65663 -3.96291
lfemur -17.9937 -2.51442 -8.31735
ltibia 34.6516 0 0
lfoot -16.2348 8.1583 0
ltoes -38.9348 0 0
rfemur -18.9273 0.137701 18.469
rtibia 38.0618 0 0
rfoot -11.8309 -20.8206 0
rtoes -16.2869 0 0
lowerback 5.50204 1.61197 -0.563424
upperback -4.25893 2.24861 1.89374
thorax -7.6555 1.19421 2.033
lowerneck -5.5244 -4.98757 -7.81331
upperneck 10.0116 -6.59415 5.87841
head 4.34155 -3.24402 2.67866
lclavicle -1.02681e-14 -1.19098e-15 0
lhumerus -33.1993 -16.4742 94.2043
lradius 47.8014 0 0
lwrist -10.6901 0 0
lhand -34.1438 389.907 0
lfingers 7.12502 0 0
lthumb -7.31844 -660.238 0
rclavicle -1.02681e-14 -1.19098e-15 0
rhumerus -35.5305 11.7016 -80.9031
rradius 45.7463 0 0
rwrist 2.23888 0 0
rhand -28.8892 -393.414 0
rfingers 7.12502 0 0
rthumb -2.24459 296.614 0
3169
root 1.02841 16.9616 -33.3256 1086.08 4.57497 -3.98075
lfemur -17.93 -2.50325 -8.32577
ltibia 34.6122 0 0
lfoot -16.2229 8.22134 0
ltoes -38.9722 0 0
rfemur -18.8929 0.164008 18.4677
rtibia 37.9911 0 0
rfoot -11.8146 -20.7774 0
rtoes -16.2728 0 0
lowerback 5.48662 1.62526 -0.56931
upperback -4.27452 2.2659 1.88987
thorax -7.6641 1.20307 2.03037
lowerneck -5.54973 -4.97192 -7.8028
upperneck 10.0904 -6.57355 5.86287
head 4.36796 -3.23394 2.67321
lclavicle -8.15459e-15 -9.15293e-16 0
lhumerus -33.1204 -16.2734 94.1289
lradius 47.3008 0 0
lwrist -10.8631 0 0
lhand -34.1362 389.931 0
lfingers 7.12502 0 0
lthumb -7.31109 -660.215 0
rclavicle -8.15459e-15 -9.15293e-16 0
rhumerus -35.516 11.4562 -80.8827
rradius 45.2811 0 0
rwrist 2.29996 0 0
rhand -28.7937 -393.32 0
rfingers 7.12502 0 0
rthumb -2.15234 296.707 0
3170
root 1.03319 16.9637 -33.3216 1086.08 4.49337 -3.99769
lfemur -17.8674 -2.49109 -8.33424
ltibia 34.5745 0 0
lfoot -16.2115 8.28351 0
ltoes -39.0112 0 0
rfemur -18.8605 0.189206 18.4664
rtibia 37.9239 0 0
rfoot -11.7999 -20.7342 0
rtoes -16.2591 0 0
lowerback 5.47219 1.63852 -0.575044
upperback -4.28973 2.28315 1.88596
thorax -7.67286 1.2119 2.02759
lowerneck -5.57398 -4.95619 -7.79233
upperneck 10.1673 -6.55285 5.84737
head 4.3937 -3.22383 2.66797
lclavicle -6.02877e-15 -6.47465e-16 0
lhumerus -33.0386 -16.0756 94.0544
lradius 46.8012 0 0
lwrist -11.0361 0 0
lhand -34.1274 389.956 0
lfingers 7.12502 0 0
lthumb -7.30259 -660.189 0
rclavicle -6.02877e-15 -6.47465e-16 0
rhumerus -35.5011 11.2158 -80.8636
rradius 44.8276 0 0
rwrist 2.35543 0 0
rhand -28.6943 -393.225 0
rfingers 7.12502 0 0
rthumb -2.05632 296.801 0
3171
root 1.03773 16.9656 -33.3176 1086.08 4.412 -4.01381
lfemur -17.8058 -2.47805 -8.34276
ltibia 34.5384 0 0
lfoot -16.2008 8.34482 0
ltoes -39.0514 0 0
rfemur -18.8299 0.213327 18.4651
rtibia 37.8601 0 0
rfoot -11.7864 -20.6912 0
rtoes -16.2458 0 0
lowerback 5.45872 1.65171 -0.580632
upperback -4.30456 2.30033 1.882
thorax -7.68177 1.22069 2.0247
lowerneck -5.59721 -4.94041 -7.78193
upperneck 10.2423 -6.53213 5.83197
head 4.41879 -3.21372 2.66294
lclavicle -3.90183e-15 -3.89585e-16 0
lhumerus -32.9544 -15.8804 93.9808
lradius 46.3032 0 0
lwrist -11.209 0 0
lhand -34.1176 389.984 0
lfingers 7.12502 0 0
lthumb -7.29309 -660.161 0
rclavicle -3.90183e-15 -3.89585e-16 0
rhumerus -35.4857 10.9806 -80.8457
rradius 44.3855 0 0
rwrist 2.40572 0 0
rhand -28.5911 -393.129 0
rfingers 7.12502 0 0
rthumb -1.95667 296.895 0
